# Blender v2.78 (sub 0) OBJ File: 'test_item.blend'
# www.blender.org
mtllib test_item.mtl
o Cube_Cube.001
v -0.750000 -0.178538 0.400000
v -0.589512 0.178538 0.314406
v -0.750000 -0.178538 -0.400000
v -0.589512 0.178538 -0.314406
v 0.750000 -0.178538 0.400000
v 0.589512 0.178538 0.314406
v 0.750000 -0.178538 -0.400000
v 0.589512 0.178538 -0.314406
vt 0.0000 0.0000
vt 0.0357 0.5000
vt 0.2977 0.5000
vt 0.3333 0.0000
vt 0.3690 0.5000
vt 0.6310 0.5000
vt 0.6667 0.0000
vt 0.0000 0.5000
vt 0.0357 1.0000
vt 0.2977 1.0000
vt 0.3333 0.5000
vt 0.3690 1.0000
vt 0.6310 1.0000
vt 0.6667 0.5000
vt 1.0000 0.5028
vt 0.6667 0.5028
vt 0.6667 1.0000
vt 1.0000 1.0000
vt 0.9287 0.5000
vt 0.9287 0.1092
vt 0.6667 0.1092
vt 0.6667 0.5000
vn -0.9121 0.4099 0.0000
vn 0.0000 0.2331 -0.9725
vn 0.9121 0.4099 0.0000
vn 0.0000 0.2331 0.9725
vn 0.0000 -1.0000 0.0000
vn 0.0000 1.0000 0.0000
usemtl None
f 1/1/1 2/2/1 4/3/1 3/4/1
f 3/4/2 4/5/2 8/6/2 7/7/2
f 7/8/3 8/9/3 6/10/3 5/11/3
f 5/11/4 6/12/4 2/13/4 1/14/4
f 3/15/5 7/16/5 5/17/5 1/18/5
f 8/19/6 4/20/6 2/21/6 6/22/6
